<svg width="96" height="34" viewBox="0 0 96 34" fill="none" xmlns="http://www.w3.org/2000/svg">
<path d="M39.32 25V14.18H41.48V16.36L41.28 16.04C41.52 15.3333 41.9067 14.8267 42.44 14.52C42.9733 14.2 43.6133 14.04 44.36 14.04H45.02V16.1H44.08C43.3333 16.1 42.7267 16.3333 42.26 16.8C41.8067 17.2533 41.58 17.9067 41.58 18.76V25H39.32ZM51.6461 25.24C50.5661 25.24 49.6061 24.9933 48.7661 24.5C47.9394 23.9933 47.2928 23.3133 46.8261 22.46C46.3594 21.5933 46.1261 20.6267 46.1261 19.56C46.1261 18.4667 46.3594 17.5 46.8261 16.66C47.3061 15.82 47.9461 15.16 48.7461 14.68C49.5461 14.1867 50.4528 13.94 51.4661 13.94C52.2794 13.94 53.0061 14.08 53.6461 14.36C54.2861 14.64 54.8261 15.0267 55.2661 15.52C55.7061 16 56.0394 16.5533 56.2661 17.18C56.5061 17.8067 56.6261 18.4733 56.6261 19.18C56.6261 19.3533 56.6194 19.5333 56.6061 19.72C56.5928 19.9067 56.5661 20.08 56.5261 20.24H47.9061V18.44H55.2461L54.1661 19.26C54.2994 18.6067 54.2528 18.0267 54.0261 17.52C53.8128 17 53.4794 16.5933 53.0261 16.3C52.5861 15.9933 52.0661 15.84 51.4661 15.84C50.8661 15.84 50.3328 15.9933 49.8661 16.3C49.3994 16.5933 49.0394 17.02 48.7861 17.58C48.5328 18.1267 48.4328 18.7933 48.4861 19.58C48.4194 20.3133 48.5194 20.9533 48.7861 21.5C49.0661 22.0467 49.4528 22.4733 49.9461 22.78C50.4528 23.0867 51.0261 23.24 51.6661 23.24C52.3194 23.24 52.8728 23.0933 53.3261 22.8C53.7928 22.5067 54.1594 22.1267 54.4261 21.66L56.2661 22.56C56.0528 23.0667 55.7194 23.5267 55.2661 23.94C54.8261 24.34 54.2928 24.66 53.6661 24.9C53.0528 25.1267 52.3794 25.24 51.6461 25.24ZM61.7764 25L57.5364 14.18H59.9964L63.2564 23H62.3564L65.6164 14.18H68.0964L63.8364 25H61.7764ZM69.6325 25V14.18H71.8925V25H69.6325ZM69.6325 12.7V10.1H71.8925V12.7H69.6325ZM78.5348 25.24C77.4282 25.24 76.4548 24.9667 75.6148 24.42C74.7882 23.8733 74.2082 23.14 73.8748 22.22L75.6148 21.4C75.9082 22.0133 76.3082 22.5 76.8148 22.86C77.3348 23.22 77.9082 23.4 78.5348 23.4C79.0682 23.4 79.5015 23.28 79.8348 23.04C80.1682 22.8 80.3348 22.4733 80.3348 22.06C80.3348 21.7933 80.2615 21.58 80.1148 21.42C79.9682 21.2467 79.7815 21.1067 79.5548 21C79.3415 20.8933 79.1215 20.8133 78.8948 20.76L77.1948 20.28C76.2615 20.0133 75.5615 19.6133 75.0948 19.08C74.6415 18.5333 74.4148 17.9 74.4148 17.18C74.4148 16.5267 74.5815 15.96 74.9148 15.48C75.2482 14.9867 75.7082 14.6067 76.2948 14.34C76.8815 14.0733 77.5415 13.94 78.2748 13.94C79.2615 13.94 80.1415 14.1867 80.9148 14.68C81.6882 15.16 82.2348 15.8333 82.5548 16.7L80.8148 17.52C80.6015 17 80.2615 16.5867 79.7948 16.28C79.3415 15.9733 78.8282 15.82 78.2548 15.82C77.7615 15.82 77.3682 15.94 77.0748 16.18C76.7815 16.4067 76.6348 16.7067 76.6348 17.08C76.6348 17.3333 76.7015 17.5467 76.8348 17.72C76.9682 17.88 77.1415 18.0133 77.3548 18.12C77.5682 18.2133 77.7882 18.2933 78.0148 18.36L79.7748 18.88C80.6682 19.1333 81.3548 19.5333 81.8348 20.08C82.3148 20.6133 82.5548 21.2533 82.5548 22C82.5548 22.64 82.3815 23.2067 82.0348 23.7C81.7015 24.18 81.2348 24.56 80.6348 24.84C80.0348 25.1067 79.3348 25.24 78.5348 25.24ZM89.8492 25.24C88.7692 25.24 87.8092 24.9933 86.9692 24.5C86.1426 23.9933 85.4959 23.3133 85.0292 22.46C84.5626 21.5933 84.3292 20.6267 84.3292 19.56C84.3292 18.4667 84.5626 17.5 85.0292 16.66C85.5092 15.82 86.1492 15.16 86.9492 14.68C87.7492 14.1867 88.6559 13.94 89.6692 13.94C90.4826 13.94 91.2092 14.08 91.8492 14.36C92.4892 14.64 93.0292 15.0267 93.4692 15.52C93.9092 16 94.2426 16.5533 94.4692 17.18C94.7092 17.8067 94.8292 18.4733 94.8292 19.18C94.8292 19.3533 94.8226 19.5333 94.8092 19.72C94.7959 19.9067 94.7692 20.08 94.7292 20.24H86.1092V18.44H93.4492L92.3692 19.26C92.5026 18.6067 92.4559 18.0267 92.2292 17.52C92.0159 17 91.6826 16.5933 91.2292 16.3C90.7892 15.9933 90.2692 15.84 89.6692 15.84C89.0692 15.84 88.5359 15.9933 88.0692 16.3C87.6026 16.5933 87.2426 17.02 86.9892 17.58C86.7359 18.1267 86.6359 18.7933 86.6892 19.58C86.6226 20.3133 86.7226 20.9533 86.9892 21.5C87.2692 22.0467 87.6559 22.4733 88.1492 22.78C88.6559 23.0867 89.2292 23.24 89.8692 23.24C90.5226 23.24 91.0759 23.0933 91.5292 22.8C91.9959 22.5067 92.3626 22.1267 92.6292 21.66L94.4692 22.56C94.2559 23.0667 93.9226 23.5267 93.4692 23.94C93.0292 24.34 92.4959 24.66 91.8692 24.9C91.2559 25.1267 90.5826 25.24 89.8492 25.24Z" fill="white"/>
<path fill-rule="evenodd" clip-rule="evenodd" d="M28.3596 14.1279C30.5468 15.4044 30.5468 18.5956 28.3596 19.8721L4.92126 33.5507C2.73403 34.8272 0 33.2316 0 30.6787V3.32132C0 0.768377 2.73404 -0.827222 4.92126 0.449263L15.6936 6.73603L10.1899 12.2433C10.1114 12.3218 10.1119 12.4492 10.1909 12.5271L12.2927 14.5987C12.371 14.6759 12.4969 14.6754 12.5746 14.5977L18.6861 8.48242L28.3596 14.1279ZM8.01764 16.526C7.94387 16.6933 8.11488 16.8637 8.28198 16.7893L11.452 15.3784C11.5807 15.3211 11.6114 15.1521 11.5109 15.0532L9.73398 13.3038C9.63425 13.2056 9.4671 13.2376 9.41066 13.3657L8.01764 16.526Z" fill="white"/>
</svg>
